<svg width="512" height="512" viewBox="0 0 512 512" fill="none" xmlns="http://www.w3.org/2000/svg" xmlns:xlink="http://www.w3.org/1999/xlink" class=""><rect id="_r_p_" width="512" height="512" x="0" y="0" rx="128" fill="#000000" stroke="#FFFFFF" stroke-width="0" stroke-opacity="100%" paint-order="stroke"></rect><clipPath id="clip"><use xlink:href="#_r_p_"></use></clipPath><defs><linearGradient id="_r_q_" gradientUnits="userSpaceOnUse" gradientTransform="rotate(45)" style="transform-origin: center center;"><stop stop-color="#000000"></stop><stop offset="1" stop-color="#f12711"></stop></linearGradient><radialGradient id="_r_r_" cx="0" cy="0" r="1" gradientUnits="userSpaceOnUse" gradientTransform="translate(256) rotate(90) scale(512)"><stop stop-color="white"></stop><stop offset="1" stop-color="white" stop-opacity="0"></stop></radialGradient></defs><svg xmlns="http://www.w3.org/2000/svg" fill="none" viewBox="0 0 16 16" width="352" height="352" x="80" y="80" alignment-baseline="middle" style="color: rgb(255, 255, 255); width: 352px; height: 352px;"><path fill="currentColor" fill-rule="evenodd" d="M6.5 2.5a1 1 0 0 0-.959.714.75.75 0 0 1-1.437-.428A2.5 2.5 0 1 1 6.5 6H2.75a.75.75 0 0 1 0-1.5H6.5a1 1 0 0 0 0-2Zm6 3a1 1 0 0 0-.959.714.75.75 0 1 1-1.437-.428A2.5 2.5 0 1 1 12.5 9H4.75a.75.75 0 0 1 0-1.5h7.75a1 1 0 1 0 0-2ZM2.75 10a.75.75 0 0 0 0 1.5H8.5a1 1 0 1 1-.959 1.286.75.75 0 0 0-1.437.428A2.5 2.5 0 1 0 8.5 10H2.75Z" clip-rule="evenodd"></path></svg></svg>