<svg width="352" height="352" viewBox="0 0 352 352" fill="none" xmlns="http://www.w3.org/2000/svg">
<path fill-rule="evenodd" clip-rule="evenodd" d="M143 55C138.261 54.9964 133.647 56.5234 129.845 59.3538C126.043 62.1841 123.258 66.1665 121.902 70.708C120.559 74.7868 117.678 78.1812 113.873 80.1702C110.067 82.1592 105.636 82.5862 101.52 81.3604C97.4045 80.1347 93.9289 77.3527 91.8317 73.6055C89.7344 69.8582 89.1806 65.441 90.288 61.292C93.2012 51.5165 98.7756 42.7437 106.388 35.9541C114 29.1645 123.351 24.6256 133.395 22.8447C143.439 21.0639 153.78 22.1112 163.262 25.8696C172.745 29.628 180.996 35.9495 187.093 44.1275C193.189 52.3055 196.891 62.0178 197.785 72.1789C198.68 82.34 196.73 92.5496 192.156 101.667C187.581 110.784 180.561 118.449 171.88 123.806C163.2 129.162 153.2 131.999 143 132H60.5C56.1239 132 51.9271 130.262 48.8327 127.167C45.7384 124.073 44 119.876 44 115.5C44 111.124 45.7384 106.927 48.8327 103.833C51.9271 100.738 56.1239 99 60.5 99H143C148.835 99 154.431 96.6822 158.556 92.5564C162.682 88.4306 165 82.8348 165 77C165 71.1653 162.682 65.5695 158.556 61.4437C154.431 57.3179 148.835 55 143 55ZM275 121C270.261 120.996 265.647 122.523 261.845 125.354C258.043 128.184 255.258 132.166 253.902 136.708C253.333 138.84 252.342 140.836 250.988 142.578C249.634 144.321 247.944 145.774 246.019 146.851C244.093 147.929 241.971 148.61 239.778 148.853C237.585 149.096 235.365 148.896 233.25 148.267C231.135 147.637 229.168 146.589 227.466 145.186C225.763 143.782 224.359 142.051 223.337 140.096C222.315 138.14 221.695 135.999 221.515 133.8C221.335 131.601 221.598 129.388 222.288 127.292C225.201 117.516 230.776 108.744 238.388 101.954C246 95.1645 255.351 90.6256 265.395 88.8447C275.439 87.0639 285.78 88.1112 295.262 91.8696C304.745 95.628 312.996 101.949 319.093 110.127C325.189 118.305 328.891 128.018 329.785 138.179C330.68 148.34 328.73 158.55 324.156 167.667C319.581 176.784 312.561 184.449 303.88 189.806C295.2 195.162 285.2 197.999 275 198H104.5C100.124 198 95.9271 196.262 92.8327 193.167C89.7384 190.073 88 185.876 88 181.5C88 177.124 89.7384 172.927 92.8327 169.833C95.9271 166.738 100.124 165 104.5 165H275C280.835 165 286.431 162.682 290.556 158.556C294.682 154.431 297 148.835 297 143C297 137.165 294.682 131.569 290.556 127.444C286.431 123.318 280.835 121 275 121ZM60.5 220C56.1239 220 51.9271 221.738 48.8327 224.833C45.7384 227.927 44 232.124 44 236.5C44 240.876 45.7384 245.073 48.8327 248.167C51.9271 251.262 56.1239 253 60.5 253H187C191.079 253.003 195.077 254.14 198.547 256.284C202.017 258.429 204.823 261.495 206.651 265.142C208.479 268.789 209.257 272.872 208.898 276.935C208.539 280.998 207.058 284.882 204.619 288.152C202.181 291.422 198.881 293.949 195.089 295.452C191.297 296.955 187.162 297.374 183.145 296.663C179.128 295.951 175.389 294.137 172.344 291.422C169.299 288.708 167.069 285.201 165.902 281.292C164.559 277.213 161.678 273.819 157.873 271.83C154.067 269.841 149.636 269.414 145.52 270.64C141.404 271.865 137.929 274.647 135.832 278.395C133.734 282.142 133.181 286.559 134.288 290.708C137.201 300.484 142.776 309.256 150.388 316.046C158 322.836 167.351 327.374 177.395 329.155C187.439 330.936 197.78 329.889 207.262 326.13C216.745 322.372 224.996 316.051 231.093 307.873C237.189 299.695 240.891 289.982 241.785 279.821C242.68 269.66 240.73 259.45 236.156 250.333C231.581 241.216 224.561 233.551 215.88 228.194C207.2 222.838 197.2 220.001 187 220H60.5Z" fill="white"/>
</svg>
